<svg viewBox="0 0 341.6696 174.888" width="5000px" height="2559.3147233670684px" xmlns="http://www.w3.org/2000/svg" xmlns:xlink="http://www.w3.org/1999/xlink" preserveAspectRatio="none"><defs></defs><style>.a48HHYjmTdfillColorDzq7PEG19 {fill:#F3B340;fill-opacity:0.66;}.aD6z1nYkhcolorDzq7PEG19 {fill:#364C63;fill-opacity:1;}.aIptOCySncolors-0Dzq7PEG19 {fill:#364C63;fill-opacity:1;}.ar2IC8QJPvfillColorDzq7PEG19 {fill:#F3B340;fill-opacity:0.62;}.shapeStroke-strDzq7PEG19 {stroke:#364C63;stroke-opacity:1;}</style><g opacity="1" transform="rotate(0 0 72.88809999999998)">
        <svg width="153.9787" height="101.9999" x="0" y="72.88809999999998" version="1.1" preserveAspectRatio="none" viewBox="0 0 153.9787 101.9999">
          <rect x="0" y="0" width="153.9787" height="101.9999" class="ar2IC8QJPvfillColorDzq7PEG19 shapeStroke-strDzq7PEG19" style="stroke-width:0;" rx="0px" ry="0px"></rect>
        </svg>
      </g><g opacity="1" transform="rotate(0 0.003900000000001569 0)">
        <svg width="153.9748" height="151.4755" x="0.003900000000001569" y="0" version="1.1" preserveAspectRatio="none" viewBox="0 0 153.9748 151.4755">
          <rect x="0" y="0" width="153.9748" height="151.4755" class="a48HHYjmTdfillColorDzq7PEG19 shapeStroke-strDzq7PEG19" style="stroke-width:0;" rx="50%" ry="50%"></rect>
        </svg>
      </g><g opacity="1" transform="rotate(0 16.910799999999995 25.412499999999994)">
        <svg width="119.1847" height="121.063" x="16.910799999999995" y="25.412499999999994" version="1.1" preserveAspectRatio="none" viewBox="14.80000114440918 14.200000762939451 70.39999389648438 71.50955200195312">
          <g transform="matrix(1 0 0 1 0 0)" class="aIptOCySncolors-0Dzq7PEG19"><path d="M46,36.1H35.5c-0.6-2.9-3.2-5.1-6.3-5.1c-3.5,0-6.4,2.9-6.4,6.4s2.9,6.4,6.4,6.4c3,0,5.5-2.1,6.2-4.9h8.7  c0.3,0,0.5,0.2,0.5,0.5v38.9c0,0.7,0.5,1.4,1.3,1.4c0.8,0.1,1.5-0.6,1.5-1.4l0,0V37.5C47.4,36.8,46.8,36.1,46,36.1z M29.2,41  c-2,0-3.6-1.6-3.6-3.6s1.6-3.6,3.6-3.6s3.6,1.6,3.6,3.6S31.2,41,29.2,41z"></path><path d="M60.4,20.6c0-3.5-2.9-6.4-6.4-6.4c-3.5,0-6.4,2.9-6.4,6.4c0,3,2.1,5.6,5,6.2v54.5v0c0,0.8,0.7,1.5,1.5,1.4  c0.7-0.1,1.3-0.7,1.3-1.4V26.8C58.3,26.2,60.4,23.6,60.4,20.6z M54,24.2c-2,0-3.6-1.6-3.6-3.6S52,17,54,17s3.6,1.6,3.6,3.6  S56,24.2,54,24.2z"></path><path d="M60.6,43.5v40.8l0,0c0,0.8,0.7,1.5,1.5,1.4c0.7-0.1,1.3-0.7,1.3-1.4V45.5c0-0.3,0.2-0.5,0.5-0.5h8.7  c0.7,2.8,3.2,4.9,6.2,4.9c3.5,0,6.4-2.9,6.4-6.4S82.3,37,78.8,37c-3.1,0-5.7,2.2-6.3,5.1H62C61.3,42.1,60.6,42.8,60.6,43.5z   M75.2,43.4c0-2,1.6-3.6,3.6-3.6s3.6,1.6,3.6,3.6S80.8,47,78.8,47S75.2,45.4,75.2,43.4z"></path><path d="M38,51.1H27.5c-0.6-2.9-3.2-5.1-6.3-5.1c-3.5,0-6.4,2.9-6.4,6.4s2.9,6.4,6.4,6.4c3,0,5.5-2.1,6.2-4.9h8.7  c0.3,0,0.5,0.2,0.5,0.5v29.9c0,0.7,0.5,1.4,1.3,1.4c0.8,0.1,1.5-0.6,1.5-1.4l0,0V52.5C39.4,51.7,38.7,51.1,38,51.1z M21.2,56  c-2,0-3.6-1.6-3.6-3.6s1.6-3.6,3.6-3.6s3.6,1.6,3.6,3.6S23.2,56,21.2,56z"></path></g>
        </svg>
      </g><g opacity="1" transform="rotate(0 72.9256 140.6315)">
        <svg width="268.744" height="28" x="72.9256" y="140.6315" version="1.1" preserveAspectRatio="none" viewBox="1.8 -31.56 307.52 32.04">
          <g transform="matrix(1 0 0 1 0 0)" class="aD6z1nYkhcolorDzq7PEG19"><path d="M1.80-29.44L21.64-29.44L21.64-23.84L14.48-23.84L14.48 0L8.68 0L8.68-23.84L1.80-23.84L1.80-29.44Z M38.48-18.32Q40.96-18.32 42.62-16.84Q44.28-15.36 44.32-13.08L44.32-13.08L44.32 0L38.72 0L38.72-11Q38.60-13.56 36.16-13.56L36.16-13.56Q34.24-13.56 33.08-11.76Q31.92-9.96 31.92-7.12L31.92-7.12L31.92 0L26.32 0L26.32-31.56L31.80-31.56L31.80-14.72Q32.76-16.40 34.46-17.36Q36.16-18.32 38.48-18.32L38.48-18.32Z M58.80-4.28Q60.48-4.28 62.28-5.44L62.28-5.44L64.76-1.28Q63.32-0.48 61.72 0Q60.12 0.48 58.68 0.48L58.68 0.48Q55.56 0.48 53.30-0.70Q51.04-1.88 49.88-4.02Q48.72-6.16 48.72-8.92L48.72-8.92Q48.72-11.48 50.06-13.64Q51.40-15.80 53.72-17.06Q56.04-18.32 58.80-18.32L58.80-18.32Q62.56-18.32 64.98-16.12Q67.40-13.92 68.12-9.84L68.12-9.84L55.32-5.76Q56.60-4.28 58.80-4.28L58.80-4.28ZM58.36-13.96Q56.48-13.96 55.36-12.68Q54.24-11.40 54.24-9.24L54.24-9.24L54.24-8.88L61.92-11.48Q61.08-13.96 58.36-13.96L58.36-13.96Z M70.84-8.96Q70.84-11.64 72.10-13.76Q73.36-15.88 75.66-17.10Q77.96-18.32 80.88-18.32L80.88-18.32Q83.80-18.32 86.02-17.10Q88.24-15.88 89.44-13.76Q90.64-11.64 90.64-8.96L90.64-8.96Q90.64-6.28 89.44-4.12Q88.24-1.96 86.02-0.74Q83.80 0.48 80.80 0.48L80.80 0.48Q77.88 0.48 75.62-0.66Q73.36-1.80 72.10-3.92Q70.84-6.04 70.84-8.96L70.84-8.96ZM76.48-8.92Q76.48-6.84 77.68-5.46Q78.88-4.08 80.72-4.08L80.72-4.08Q82.64-4.08 83.82-5.44Q85-6.80 85-8.92L85-8.92Q85-11.04 83.82-12.40Q82.64-13.76 80.72-13.76L80.72-13.76Q78.88-13.76 77.68-12.38Q76.48-11 76.48-8.92L76.48-8.92Z M126.20-30.64L126.28-30.64L126.28 0L120.48 0L120.48-14.04L110.88-0.40L110.80-0.40L101.56-13.16L101.56 0L95.96 0L95.96-30.64L96.00-30.64L110.92-9.48L126.20-30.64Z M131.60-8.96Q131.60-11.64 132.86-13.76Q134.12-15.88 136.42-17.10Q138.72-18.32 141.64-18.32L141.64-18.32Q144.56-18.32 146.78-17.10Q149-15.88 150.20-13.76Q151.40-11.64 151.40-8.96L151.40-8.96Q151.40-6.28 150.20-4.12Q149-1.96 146.78-0.74Q144.56 0.48 141.56 0.48L141.56 0.48Q138.64 0.48 136.38-0.66Q134.12-1.80 132.86-3.92Q131.60-6.04 131.60-8.96L131.60-8.96ZM137.24-8.92Q137.24-6.84 138.44-5.46Q139.64-4.08 141.48-4.08L141.48-4.08Q143.40-4.08 144.58-5.44Q145.76-6.80 145.76-8.92L145.76-8.92Q145.76-11.04 144.58-12.40Q143.40-13.76 141.48-13.76L141.48-13.76Q139.64-13.76 138.44-12.38Q137.24-11 137.24-8.92L137.24-8.92Z M157.44-25.16L163.04-25.16L163.04-17.56L167.28-17.56L167.28-13.20L163.04-13.20L163.04 0L157.44 0L157.44-13.20L154.72-13.20L154.72-17.56L157.44-17.56L157.44-25.16Z M180.28-4.28Q181.96-4.28 183.76-5.44L183.76-5.44L186.24-1.28Q184.80-0.48 183.20 0Q181.60 0.48 180.16 0.48L180.16 0.48Q177.04 0.48 174.78-0.70Q172.52-1.88 171.36-4.02Q170.20-6.16 170.20-8.92L170.20-8.92Q170.20-11.48 171.54-13.64Q172.88-15.80 175.20-17.06Q177.52-18.32 180.28-18.32L180.28-18.32Q184.04-18.32 186.46-16.12Q188.88-13.92 189.60-9.84L189.60-9.84L176.80-5.76Q178.08-4.28 180.28-4.28L180.28-4.28ZM179.84-13.96Q177.96-13.96 176.84-12.68Q175.72-11.40 175.72-9.24L175.72-9.24L175.72-8.88L183.40-11.48Q182.56-13.96 179.84-13.96L179.84-13.96Z M208.52-1.56Q207.36-0.64 205.62-0.08Q203.88 0.48 202.20 0.48L202.20 0.48Q197.64 0.48 194.98-1.98Q192.32-4.44 192.32-8.76L192.32-8.76Q192.32-11.56 193.62-13.66Q194.92-15.76 197.04-16.86Q199.16-17.96 201.60-17.96L201.60-17.96Q205.96-17.96 208.68-15.64L208.68-15.64L205.96-12.04Q204.24-13.40 202.12-13.40L202.12-13.40Q200.36-13.40 199.14-12.08Q197.92-10.76 197.92-8.76L197.92-8.76Q197.92-6.76 199.24-5.42Q200.56-4.08 202.68-4.08L202.68-4.08Q204.52-4.08 205.72-5.08L205.72-5.08L208.52-1.56Z M225-18.32Q227.48-18.32 229.14-16.84Q230.80-15.36 230.84-13.08L230.84-13.08L230.84 0L225.24 0L225.24-11Q225.12-13.56 222.68-13.56L222.68-13.56Q220.76-13.56 219.60-11.76Q218.44-9.96 218.44-7.12L218.44-7.12L218.44 0L212.84 0L212.84-31.56L218.32-31.56L218.32-14.72Q219.28-16.40 220.98-17.36Q222.68-18.32 225-18.32L225-18.32Z M250.52-29.44L256.32-29.44L256.32 0L250.52 0L250.52-29.44Z M275.16-18.32Q277.64-18.32 279.30-16.84Q280.96-15.36 281-13.08L281-13.08L281 0L275.40 0L275.40-11Q275.28-13.56 272.84-13.56L272.84-13.56Q270.92-13.56 269.76-11.76Q268.60-9.96 268.60-7.12L268.60-7.12L268.60 0L263 0L263-17.48L268.08-17.48L268.48-14.68Q269.44-16.40 271.14-17.36Q272.84-18.32 275.16-18.32L275.16-18.32Z M301.60-1.56Q300.44-0.64 298.70-0.08Q296.96 0.48 295.28 0.48L295.28 0.48Q290.72 0.48 288.06-1.98Q285.40-4.44 285.40-8.76L285.40-8.76Q285.40-11.56 286.70-13.66Q288-15.76 290.12-16.86Q292.24-17.96 294.68-17.96L294.68-17.96Q299.04-17.96 301.76-15.64L301.76-15.64L299.04-12.04Q297.32-13.40 295.20-13.40L295.20-13.40Q293.44-13.40 292.22-12.08Q291-10.76 291-8.76L291-8.76Q291-6.76 292.32-5.42Q293.64-4.08 295.76-4.08L295.76-4.08Q297.60-4.08 298.80-5.08L298.80-5.08L301.60-1.56Z M303.64-2.88Q303.64-4.08 304.52-4.94Q305.40-5.80 306.52-5.80L306.52-5.80Q307.56-5.80 308.44-4.94Q309.32-4.08 309.32-2.88L309.32-2.88Q309.32-1.64 308.46-0.82Q307.60 0 306.52 0L306.52 0Q305.40 0 304.52-0.80Q303.64-1.60 303.64-2.88L303.64-2.88Z"></path></g>
        </svg>
      </g></svg>